<?xml version="1.0" standalone="no"?>
<!DOCTYPE svg PUBLIC "-//W3C//DTD SVG 20010904//EN"
 "http://www.w3.org/TR/2001/REC-SVG-20010904/DTD/svg10.dtd">
<svg version="1.0" xmlns="http://www.w3.org/2000/svg"
 width="473.000000pt" height="569.000000pt" viewBox="0 0 473.000000 569.000000"
 preserveAspectRatio="xMidYMid meet">

<g transform="translate(0.000000,569.000000) scale(0.100000,-0.100000)"
fill="#000000" stroke="none">
<path d="M2110 5675 c-311 -44 -612 -159 -879 -336 -897 -595 -1372 -1813
-1180 -3024 167 -1054 823 -1913 1680 -2199 225 -76 407 -106 639 -106 403 0
791 120 1139 351 897 595 1372 1813 1180 3024 -167 1054 -823 1913 -1680 2199
-150 51 -236 71 -389 91 -129 18 -382 17 -510 0z m420 -95 c468 -42 896 -243
1256 -592 243 -235 410 -469 560 -783 200 -418 296 -858 296 -1355 0 -497 -96
-937 -296 -1355 -150 -314 -317 -548 -560 -783 -825 -799 -2007 -799 -2832 0
-134 130 -233 245 -326 379 -278 400 -453 873 -513 1394 -22 187 -22 543 0
730 70 603 298 1154 650 1574 469 559 1115 848 1765 791z"/>
<path d="M1792 5100 c-24 -11 -67 -44 -96 -75 -52 -53 -55 -55 -108 -55 -116
0 -202 -60 -254 -176 -19 -43 -28 -54 -47 -54 -44 0 -147 -60 -178 -103 -30
-42 -59 -122 -59 -166 0 -22 -8 -29 -48 -46 -64 -26 -134 -98 -155 -160 -9
-27 -17 -74 -17 -105 0 -55 -1 -57 -35 -73 -49 -23 -123 -94 -148 -142 -19
-35 -22 -56 -22 -159 l0 -120 -51 -47 c-57 -55 -90 -114 -106 -193 -10 -44 -9
-68 4 -128 l16 -73 -38 -42 c-22 -22 -51 -65 -67 -95 -25 -47 -28 -63 -28
-148 0 -84 4 -105 33 -177 l33 -81 -22 -64 c-40 -118 -15 -250 65 -345 25 -29
25 -30 8 -74 -10 -28 -16 -76 -17 -134 0 -107 21 -160 95 -239 l45 -48 0 -112
c0 -101 2 -116 28 -168 34 -68 119 -150 204 -195 56 -30 61 -36 67 -74 15 -95
99 -209 186 -254 25 -12 70 -28 101 -34 55 -12 57 -13 63 -49 17 -110 124
-239 234 -284 l57 -23 570 0 c594 0 660 3 885 47 312 59 599 203 812 407 l48
45 -20 21 -20 21 56 47 c92 77 207 214 248 296 17 32 17 33 -3 48 l-22 14 25
29 c49 58 96 192 96 271 0 24 12 56 35 95 67 112 99 227 110 404 4 58 13 127
21 154 29 104 13 256 -40 372 -22 47 -23 61 -19 160 5 97 -10 331 -23 377 -3
9 -13 17 -23 17 -16 0 -19 13 -24 98 -7 109 -26 189 -64 274 -22 50 -29 57
-48 52 -20 -5 -23 1 -43 80 -24 97 -87 238 -163 362 -52 85 -74 111 -63 77 3
-10 -16 23 -43 72 -80 150 -136 221 -216 273 -39 25 -106 74 -149 109 -120 96
-188 139 -197 124 -6 -9 -24 -3 -72 23 -119 65 -393 139 -444 120 -8 -3 -15
-15 -15 -26 0 -16 -5 -19 -27 -14 -145 30 -293 35 -313 11 -6 -8 -10 -19 -8
-24 1 -5 44 -46 93 -92 59 -54 103 -106 128 -149 21 -36 48 -73 60 -83 44 -36
183 -126 240 -153 31 -16 57 -34 57 -40 0 -19 133 -156 188 -193 29 -20 57
-50 67 -70 33 -69 105 -160 191 -239 63 -59 88 -89 90 -109 4 -37 125 -276
171 -338 34 -45 39 -61 54 -160 11 -78 12 -112 5 -117 -17 -11 -12 -297 7
-398 11 -55 13 -86 6 -91 -14 -8 -36 -145 -42 -255 -3 -62 -10 -100 -22 -117
-31 -47 -55 -126 -64 -211 -9 -78 -14 -89 -56 -147 -61 -82 -112 -192 -130
-274 -12 -58 -19 -71 -58 -106 -47 -41 -101 -116 -152 -210 -21 -40 -51 -73
-105 -116 -136 -110 -196 -184 -300 -373 -63 -114 -88 -143 -156 -175 -80 -38
-168 -55 -284 -55 -205 0 -231 20 -381 288 -103 185 -228 292 -340 292 -46 0
-46 0 -85 62 -71 117 -178 211 -257 227 -29 6 -31 10 -48 88 -22 100 -46 149
-98 196 l-40 36 1 103 c2 126 -17 197 -67 255 -35 41 -35 43 -25 90 6 26 11
87 11 134 0 92 -13 138 -56 195 l-25 32 25 55 c47 103 53 188 18 264 -15 31
-14 34 16 80 61 91 84 153 89 235 4 70 2 81 -23 123 l-27 46 52 55 c73 77 104
149 97 225 l-5 59 49 41 c95 81 154 201 131 268 -10 28 -8 32 26 53 72 43 112
82 137 132 14 27 25 60 25 72 0 19 11 25 70 43 81 25 142 73 162 127 l12 34
76 0 c51 0 88 6 116 19 41 19 84 63 84 87 0 7 20 36 45 64 32 36 45 59 45 81
0 46 -26 87 -71 109 -22 12 -42 27 -45 35 -3 8 -29 26 -57 40 -64 32 -151 34
-215 5z m219 -26 c14 -7 34 -24 43 -38 9 -15 23 -26 32 -26 26 0 74 -56 74
-87 0 -35 -32 -89 -58 -97 -13 -4 -22 -19 -26 -40 -7 -38 -50 -86 -77 -86 -10
0 -34 15 -53 34 -60 56 -44 111 44 149 l35 15 -38 1 c-53 1 -106 28 -113 57
-7 29 10 76 44 116 26 30 38 30 93 2z m924 -56 c221 -54 362 -146 467 -303 22
-34 37 -49 33 -35 -11 38 -64 131 -94 164 -21 23 -22 26 -6 18 59 -30 223
-174 270 -237 35 -47 63 -140 79 -261 7 -61 21 -124 30 -140 10 -16 14 -20 11
-9 -4 11 -11 75 -15 142 -10 141 -22 193 -56 246 -39 60 -21 54 30 -10 59 -73
177 -308 201 -399 11 -43 20 -129 25 -229 4 -88 13 -175 20 -193 17 -44 21
-36 9 16 -5 24 -11 133 -12 242 l-3 200 34 -63 c41 -76 90 -195 108 -262 18
-66 18 -238 -1 -350 -8 -49 -14 -117 -13 -150 1 -59 1 -58 10 25 5 47 25 132
43 190 19 58 35 121 37 140 l3 35 18 -40 c31 -68 48 -146 54 -245 5 -81 1
-118 -26 -250 -30 -150 -56 -339 -47 -347 2 -2 7 18 11 44 3 26 29 114 56 194
27 81 49 162 50 180 l1 34 10 -30 c5 -16 11 -120 11 -230 2 -231 0 -239 -104
-447 -71 -141 -94 -199 -102 -253 -6 -39 -6 -39 12 11 24 65 42 99 97 185 25
39 59 107 75 152 16 45 32 89 35 97 4 9 16 -10 31 -50 34 -88 43 -231 18 -316
-25 -87 -49 -123 -204 -299 -77 -88 -152 -181 -166 -207 -34 -62 -26 -61 15 1
17 27 78 93 136 147 58 53 126 126 150 161 25 34 48 63 50 63 9 0 -7 -123 -26
-206 -42 -183 -107 -275 -282 -400 -67 -49 -157 -122 -198 -163 -44 -43 -54
-55 -24 -29 56 48 126 96 217 149 32 19 83 57 113 84 53 50 54 50 54 24 0 -49
-40 -156 -79 -215 -48 -72 -100 -112 -259 -198 -124 -67 -211 -123 -267 -171
-24 -20 -19 -19 25 8 87 54 150 84 241 113 100 32 164 63 210 101 18 15 29 21
24 13 -52 -90 -185 -237 -270 -300 -79 -58 -130 -85 -275 -144 -170 -69 -294
-125 -288 -131 2 -2 40 10 84 26 43 17 138 46 210 65 73 18 159 47 193 63 34
17 61 29 61 27 0 -11 -163 -139 -243 -190 -266 -174 -549 -249 -985 -263
l-203 -6 3 54 3 54 80 7 c148 14 274 67 327 139 14 19 49 77 78 129 29 52 70
120 91 151 35 53 173 189 211 210 16 9 16 7 1 -33 -13 -32 -17 -76 -18 -170 0
-167 18 -152 25 21 l6 128 61 124 c60 120 134 228 170 248 17 8 18 1 21 -82 2
-51 5 -136 5 -189 1 -55 5 -90 10 -82 9 16 12 116 8 284 -2 79 2 136 13 184
17 72 78 200 121 251 l24 30 1 -49 c0 -28 13 -87 32 -140 27 -78 32 -106 32
-193 1 -112 10 -113 26 -2 13 91 6 147 -31 253 -19 55 -29 101 -29 143 0 92
19 212 43 268 l21 50 8 -44 c4 -24 25 -78 48 -121 22 -43 47 -104 55 -136 18
-71 28 -83 20 -24 -9 60 -21 101 -56 187 -41 100 -51 191 -39 326 14 150 18
160 40 110 11 -26 40 -57 80 -88 34 -26 76 -69 92 -94 19 -29 27 -37 23 -21
-14 46 -37 84 -85 134 -26 28 -58 71 -70 95 -34 69 -60 211 -66 366 l-5 140
21 -52 c14 -34 40 -70 76 -105 31 -29 74 -80 96 -113 22 -33 36 -49 33 -35
-14 48 -45 99 -95 155 -66 77 -100 169 -126 349 l-7 49 21 -21 c11 -11 48 -30
81 -43 41 -14 73 -34 96 -60 38 -42 43 -43 21 -1 -19 37 -50 63 -126 105 -64
35 -117 83 -157 142 -23 34 -116 215 -132 257 l-10 27 34 -24 c19 -12 58 -29
87 -35 56 -13 103 -33 153 -65 l30 -19 -25 28 c-14 16 -65 48 -115 71 -49 23
-118 63 -152 88 -84 63 -243 223 -272 276 l-23 42 50 -25 c31 -16 88 -31 152
-40 56 -9 122 -25 147 -36 30 -13 41 -15 34 -6 -19 23 -105 55 -186 71 -87 16
-159 47 -242 102 -66 43 -179 146 -195 177 -10 18 -9 19 4 9 28 -23 101 -43
197 -54 53 -6 128 -21 166 -34 39 -13 72 -22 73 -20 12 11 -156 76 -233 90
-49 9 -119 25 -155 37 -138 44 -326 153 -394 228 -44 49 -47 71 -6 36 35 -29
77 -42 165 -51 33 -3 80 -8 105 -11 32 -3 41 -2 30 5 -8 6 -40 13 -70 17 -140
17 -246 72 -372 193 -40 39 -82 77 -93 85 -18 14 -14 15 56 16 152 0 356 -50
441 -108 51 -35 121 -101 167 -157 l33 -40 -18 35 c-30 54 -194 211 -264 252
-63 37 -63 37 -24 32 21 -3 75 -15 119 -26z m-1257 -88 c18 -11 46 -20 63 -20
75 0 116 -103 67 -165 -16 -21 -21 -39 -19 -70 2 -33 -3 -49 -22 -70 -20 -24
-28 -27 -60 -21 -106 20 -119 116 -24 178 18 11 23 17 12 13 -11 -4 -43 -9
-72 -12 -46 -5 -54 -3 -78 21 -24 24 -27 33 -22 71 4 23 12 54 18 69 11 23 18
26 58 26 28 0 59 -8 79 -20z m-313 -219 c10 -4 31 -3 45 2 35 13 76 2 107 -29
22 -22 24 -31 19 -77 -9 -77 -9 -79 5 -122 10 -34 10 -46 -2 -70 -13 -27 -20
-30 -65 -33 -101 -6 -137 69 -74 157 l31 42 -43 -27 c-57 -37 -117 -43 -142
-15 -21 24 -35 85 -28 129 3 22 12 34 31 41 31 11 89 12 116 2z m-78 -296 c32
-32 34 -39 32 -87 -2 -40 3 -62 19 -88 14 -23 22 -51 22 -82 0 -43 -2 -47 -31
-57 -52 -18 -112 -14 -137 9 -26 25 -29 83 -7 137 l15 35 -44 -36 c-60 -49
-91 -60 -124 -44 -31 15 -69 86 -74 138 -3 33 0 37 42 58 26 13 63 22 90 22
25 0 54 7 64 15 11 8 37 15 59 15 31 0 46 -7 74 -35z m-223 -309 c55 -23 77
-61 75 -127 -2 -45 2 -62 19 -83 25 -33 36 -76 27 -115 -5 -25 -13 -31 -56
-41 -61 -15 -114 -6 -134 23 -21 30 -18 93 6 146 l20 45 -42 -42 c-82 -81
-142 -88 -186 -23 -23 33 -47 126 -37 142 13 21 90 51 133 51 25 0 51 5 58 10
11 9 57 25 76 27 4 1 22 -5 41 -13z m-124 -414 c27 -27 39 -49 45 -82 6 -34
17 -54 45 -80 37 -34 67 -106 56 -135 -7 -20 -106 -65 -142 -65 -20 0 -44 9
-61 24 -26 23 -28 29 -28 103 l0 78 -39 -58 c-81 -122 -161 -115 -234 21 l-32
59 37 38 c37 38 87 65 121 65 10 0 29 12 43 26 31 33 54 43 108 43 37 1 49 -4
81 -37z m-120 -397 c35 -18 66 -68 73 -120 5 -28 15 -46 38 -64 35 -27 68 -92
69 -132 0 -21 -10 -31 -48 -52 -27 -14 -66 -29 -89 -33 -35 -5 -44 -3 -74 24
-33 30 -34 32 -34 109 l0 78 -36 -55 c-85 -131 -171 -124 -248 20 l-33 62 33
34 c36 37 103 74 135 74 11 0 31 12 45 26 13 14 33 30 44 34 32 14 94 11 125
-5z m-30 -450 c16 -15 34 -40 40 -56 8 -19 24 -32 49 -40 51 -17 84 -42 106
-83 l19 -35 -26 -36 c-61 -86 -140 -110 -191 -57 -28 29 -57 98 -58 141 0 14
-7 -2 -14 -36 -19 -85 -42 -131 -78 -149 -43 -23 -85 -11 -153 44 -46 38 -58
54 -56 73 4 40 55 113 94 133 21 12 40 32 47 51 33 91 151 118 221 50z m31
-412 c16 -10 41 -35 56 -55 18 -27 37 -41 67 -49 52 -14 92 -43 112 -80 14
-28 14 -32 -5 -62 -27 -43 -70 -83 -104 -96 -61 -23 -124 34 -152 137 l-13 47
-1 -37 c-3 -120 -48 -200 -112 -200 -61 0 -179 74 -179 112 0 48 74 160 106
160 8 0 14 8 14 18 0 29 33 81 65 102 38 25 107 26 146 3z m86 -434 c24 -12
51 -32 60 -45 12 -19 24 -24 60 -24 50 0 108 -28 135 -65 17 -22 16 -25 -13
-84 -35 -70 -66 -95 -116 -94 -40 1 -92 45 -124 103 l-19 35 1 -50 c2 -108 -1
-123 -27 -154 -35 -42 -94 -43 -181 -1 -59 27 -63 31 -63 63 0 47 18 96 50
137 15 20 31 51 35 70 13 60 34 91 78 111 54 24 71 24 124 -2z m402 -409 c45
-13 51 -23 51 -98 0 -74 -19 -115 -62 -133 -37 -15 -104 3 -161 44 -38 28 -40
29 -24 6 83 -116 99 -189 51 -234 -27 -25 -99 -45 -165 -45 -38 0 -41 2 -60
45 -15 34 -20 65 -19 123 1 42 -2 99 -6 127 -8 65 14 107 71 135 47 23 75 24
125 7 30 -11 40 -9 79 11 49 24 70 27 120 12z m399 -301 c28 -10 31 -16 38
-65 8 -71 -1 -117 -32 -154 -22 -26 -33 -30 -73 -30 -48 0 -123 31 -164 68
-10 9 3 -14 27 -51 108 -162 70 -246 -116 -255 l-76 -4 -18 33 c-20 39 -30
144 -16 179 6 18 5 31 -4 45 -13 20 -18 58 -16 107 3 39 56 95 104 110 31 9
53 9 97 0 51 -11 61 -10 97 8 44 22 105 25 152 9z"/>
<path d="M2282 4375 c-44 -19 -69 -75 -51 -117 15 -38 38 -52 121 -78 36 -11
68 -26 71 -33 17 -48 -69 -67 -99 -22 -14 21 -24 25 -65 25 -56 0 -59 -8 -29
-58 25 -41 73 -62 140 -62 92 0 148 38 157 108 8 58 -31 97 -121 123 -81 22
-95 32 -76 54 19 23 57 19 75 -9 14 -21 21 -23 63 -18 26 2 48 6 50 7 10 9
-33 67 -58 80 -37 19 -134 19 -178 0z"/>
<path d="M1714 4123 c-18 -10 -61 -45 -97 -78 l-66 -60 110 -123 c61 -67 114
-122 119 -122 12 0 70 50 70 61 0 5 -18 29 -40 53 l-39 43 35 34 c53 49 68 90
51 132 -29 66 -88 91 -143 60z m54 -109 c2 -11 -6 -32 -17 -45 l-20 -24 -27
27 c-27 27 -28 28 -9 48 25 27 69 24 73 -6z"/>
<path d="M2980 4105 c-36 -38 -30 -82 19 -152 45 -65 49 -78 24 -91 -37 -21
-86 30 -69 73 3 10 -8 24 -32 40 -34 23 -38 24 -49 8 -7 -9 -13 -31 -13 -47 0
-107 176 -201 245 -132 49 49 42 101 -27 186 -30 39 -33 70 -5 70 21 0 50 -37
45 -57 -3 -12 7 -27 33 -45 38 -27 39 -27 50 -7 18 35 2 84 -42 124 -69 62
-138 74 -179 30z"/>
<path d="M2357 3904 c-3 -28 -13 -54 -27 -70 -17 -17 -26 -45 -34 -100 -7 -52
-16 -80 -28 -87 -24 -15 -48 8 -48 47 0 58 -17 62 -25 6 -5 -39 -12 -54 -26
-57 -15 -4 -19 -15 -19 -54 0 -45 -2 -48 -27 -51 -22 -2 -29 -9 -31 -30 -2
-16 -9 -28 -18 -28 -10 0 -14 -12 -14 -44 0 -73 -18 -96 -46 -58 -11 14 -13
-1 -14 -103 0 -66 -5 -137 -10 -157 l-11 -38 -29 34 c-17 18 -30 44 -31 57 -1
21 -2 20 -10 -7 -5 -17 -18 -39 -29 -49 -11 -10 -20 -24 -20 -32 0 -7 -4 -13
-10 -13 -6 0 -10 -104 -10 -292 l0 -293 -37 -36 c-45 -43 -57 -58 -66 -82 -9
-24 -27 -12 -27 17 0 13 -13 50 -30 82 -16 32 -30 67 -30 77 0 9 -4 17 -10 17
-5 0 -10 -7 -10 -16 0 -9 -13 -44 -30 -78 -16 -33 -30 -72 -32 -86 -3 -22 -9
-25 -45 -28 l-43 -3 0 -101 0 -100 -45 -64 c-25 -34 -45 -65 -45 -68 0 -3 441
-6 980 -6 539 0 980 3 980 6 0 3 -20 34 -45 68 l-45 64 0 100 0 101 -42 3
c-37 3 -43 6 -46 28 -2 14 -16 53 -32 86 -17 34 -30 69 -30 78 0 9 -4 16 -10
16 -5 0 -10 -8 -10 -17 0 -10 -14 -45 -30 -77 -17 -32 -30 -69 -30 -82 0 -29
-18 -41 -27 -17 -9 24 -21 39 -65 82 l-38 36 0 293 c0 188 -4 292 -10 292 -5
0 -10 6 -10 13 0 8 -9 22 -20 32 -11 10 -24 32 -29 49 -8 27 -9 28 -10 7 -1
-13 -14 -39 -31 -57 l-29 -34 -11 38 c-5 20 -10 91 -10 157 -1 102 -3 117 -14
103 -28 -38 -46 -15 -46 58 0 32 -4 44 -14 44 -9 0 -16 12 -18 28 -2 21 -9 28
-30 30 -26 3 -28 6 -28 51 0 39 -4 50 -19 54 -14 3 -21 18 -26 57 -8 56 -25
52 -25 -6 0 -39 -24 -62 -48 -47 -12 7 -21 35 -28 87 -8 55 -17 83 -34 100
-14 16 -24 42 -27 70 -3 25 -9 46 -13 46 -4 0 -10 -21 -13 -46z m23 -934 c0
-11 -4 -20 -10 -20 -5 0 -10 9 -10 20 0 11 5 20 10 20 6 0 10 -9 10 -20z
m-144 -36 c-4 -9 -9 -15 -11 -12 -3 3 -3 13 1 22 4 9 9 15 11 12 3 -3 3 -13
-1 -22z m284 -7 c0 -5 -4 -5 -10 -2 -5 3 -10 14 -10 23 0 15 2 15 10 2 5 -8
10 -19 10 -23z m-125 -5 c3 -8 0 -10 -8 -6 -6 4 -4 -1 5 -12 18 -21 89 -27
105 -9 5 4 1 5 -7 0 -13 -7 -13 -6 -1 6 10 11 15 11 18 1 3 -6 9 -10 14 -6 5
3 9 -7 9 -21 0 -17 -4 -24 -11 -19 -7 4 -10 1 -7 -6 2 -8 -4 -22 -14 -32 -12
-12 -17 -26 -13 -39 6 -18 1 -19 -115 -19 -116 0 -121 1 -115 19 4 13 -1 27
-13 39 -10 10 -16 24 -14 32 3 7 0 10 -7 6 -7 -5 -11 2 -11 19 0 14 4 24 9 21
5 -4 11 0 14 6 3 10 8 10 18 -1 12 -12 12 -13 -1 -6 -8 5 -12 4 -7 0 16 -18
87 -12 105 9 9 11 11 16 5 12 -8 -4 -11 -2 -8 6 3 8 14 14 25 14 11 0 22 -6
25 -14z m75 -300 l0 -128 35 -34 c29 -28 35 -41 38 -89 l4 -56 1 60 c1 95 1
97 13 89 7 -4 10 -1 7 7 -3 8 2 20 11 27 9 8 10 11 4 7 -21 -10 -15 -1 19 31
17 16 28 23 24 17 -5 -9 -2 -11 8 -7 9 3 13 11 10 16 -4 6 2 7 16 3 15 -5 20
-4 16 4 -5 7 5 11 29 11 24 0 34 -4 29 -11 -4 -7 0 -9 14 -5 16 5 31 -2 59
-29 21 -20 31 -34 23 -30 -8 4 -7 0 4 -9 10 -8 15 -19 11 -25 -3 -6 -1 -11 4
-11 6 0 11 -11 11 -25 0 -20 -5 -25 -26 -25 -24 0 -26 3 -22 32 4 26 0 38 -23
59 -16 14 -31 24 -34 21 -3 -3 -5 -1 -5 4 0 5 -20 9 -45 9 -25 0 -45 -4 -45
-9 0 -5 -2 -7 -5 -4 -3 3 -19 -7 -35 -22 -21 -20 -28 -33 -24 -51 5 -19 4 -21
-5 -9 -9 12 -11 11 -11 -8 0 -15 4 -21 12 -16 8 5 9 0 5 -16 -4 -17 1 -30 23
-50 16 -15 32 -25 35 -22 3 3 5 1 5 -5 0 -5 14 -8 30 -5 27 4 30 1 30 -22 0
-22 -4 -26 -27 -26 -23 0 -25 2 -13 11 12 8 9 9 -12 5 -23 -5 -35 0 -65 30
-21 20 -32 32 -24 28 9 -5 12 -3 7 4 -12 20 -25 13 -28 -15 l-3 -28 -185 0
-185 0 -3 28 c-3 28 -16 35 -28 15 -5 -7 -2 -9 7 -4 8 4 -3 -8 -24 -28 -30
-30 -42 -35 -65 -30 -21 4 -24 3 -12 -5 12 -9 10 -11 -12 -11 -24 0 -28 4 -28
26 0 23 3 26 30 22 17 -3 30 0 30 5 0 6 2 8 5 5 3 -3 19 7 35 22 22 20 27 33
23 50 -4 16 -3 21 5 16 8 -5 12 1 12 16 0 19 -2 20 -11 8 -9 -12 -10 -10 -5 9
4 18 -3 31 -24 51 -16 15 -32 25 -35 22 -3 -3 -5 -1 -5 4 0 5 -20 9 -45 9 -25
0 -45 -4 -45 -9 0 -5 -2 -7 -5 -4 -3 3 -18 -7 -34 -21 -23 -21 -27 -33 -23
-59 4 -29 2 -32 -22 -32 -21 0 -26 5 -26 25 0 14 5 25 11 25 5 0 7 5 4 11 -4
6 1 17 11 25 11 9 12 13 4 9 -8 -4 2 10 23 30 28 27 43 34 59 29 14 -4 18 -2
14 5 -5 7 5 11 29 11 24 0 34 -4 29 -11 -4 -8 1 -9 16 -4 14 4 20 3 16 -3 -3
-5 1 -13 10 -16 8 -3 12 -2 9 4 -12 19 2 10 31 -22 16 -17 22 -28 14 -24 -12
6 -12 5 1 -6 9 -7 14 -19 11 -27 -3 -8 0 -11 7 -7 12 8 12 6 13 -89 l1 -60 4
56 c3 48 9 61 38 89 l35 34 0 128 0 128 100 0 100 0 0 -128z m-210 -125 c0 -2
-15 -16 -32 -33 l-33 -29 29 33 c28 30 36 37 36 29z m256 -29 l29 -33 -32 29
c-31 28 -38 36 -30 36 2 0 16 -15 33 -32z"/>
<path d="M1966 1860 c-39 -12 -98 -55 -123 -88 -45 -61 -57 -96 -57 -167 0
-108 52 -192 146 -239 61 -31 155 -35 216 -11 37 15 40 15 96 -15 82 -43 170
-43 252 0 56 30 59 30 96 15 61 -24 155 -20 216 11 94 47 146 131 146 239 0
80 -22 132 -79 190 -59 58 -90 70 -185 70 -75 0 -90 -3 -133 -28 -47 -28 -49
-28 -88 -13 -22 9 -66 16 -99 16 -33 0 -77 -7 -99 -16 -39 -15 -41 -15 -86 12
-37 21 -62 28 -119 30 -39 2 -84 -1 -100 -6z m165 -15 c124 -44 195 -165 169
-291 -6 -29 -19 -63 -29 -75 l-17 -21 -19 28 c-15 23 -18 44 -16 97 1 58 -2
76 -23 112 -54 92 -176 108 -261 34 -112 -99 -41 -291 108 -293 29 -1 61 2 72
6 16 6 25 0 42 -26 l22 -33 -27 -13 c-15 -6 -50 -14 -78 -17 -145 -15 -274
102 -274 248 0 119 62 203 179 245 49 18 100 17 152 -1z m640 0 c138 -47 208
-208 149 -342 -28 -63 -64 -100 -125 -129 -91 -43 -195 -28 -271 39 -53 47
-83 101 -91 165 -5 50 11 132 27 132 23 0 55 -63 57 -110 1 -26 8 -61 16 -76
62 -119 235 -124 302 -10 86 146 -69 323 -216 248 l-36 -18 -32 27 -33 27 26
17 c68 45 151 56 227 30z m-320 -30 c102 -35 169 -129 169 -237 0 -31 -5 -69
-11 -85 l-11 -28 -29 35 c-23 27 -29 44 -29 80 -1 113 -121 200 -224 160 -22
-8 -28 -5 -47 21 -24 34 -21 39 24 56 45 16 106 16 158 -2z m-324 -70 c21 -15
21 -15 2 -51 -26 -52 -34 -119 -20 -177 7 -32 8 -54 2 -60 -5 -5 -32 -9 -60
-9 -66 0 -113 29 -142 88 -37 77 -15 150 61 202 39 26 124 30 157 7z m643 -7
c75 -52 98 -125 61 -200 -29 -60 -77 -90 -142 -90 -28 0 -55 4 -60 9 -6 6 -5
28 2 60 14 58 6 125 -20 177 -19 36 -19 36 2 51 33 23 118 19 157 -7z m-338
-17 c4 -4 3 -24 -3 -46 -14 -51 -6 -139 17 -188 21 -43 14 -55 -40 -67 -38 -8
-101 1 -119 19 -7 7 -4 23 9 53 19 42 25 135 14 203 -4 26 -2 30 25 36 32 6
85 1 97 -10z m-245 -33 c12 -23 16 -52 14 -96 -3 -82 28 -140 92 -171 52 -25
93 -27 148 -5 40 17 41 17 67 -9 26 -26 26 -27 7 -41 -11 -9 -40 -22 -64 -31
-163 -56 -331 65 -331 239 0 55 28 146 44 146 3 0 13 -15 23 -32z"/>
</g>
</svg>
